<svg width="143" height="200" viewBox="0 0 143 200" fill="none" xmlns="http://www.w3.org/2000/svg">
<path d="M70.03 166.085C74.35 166.085 78.355 165.275 82.045 163.655C85.825 162.035 89.065 159.83 91.765 157.04C94.465 154.16 96.58 150.83 98.11 147.05C99.73 143.18 100.54 138.995 100.54 134.495C100.54 129.455 99.775 124.955 98.245 120.995C96.805 117.035 94.735 113.705 92.035 111.005C89.335 108.305 86.05 106.235 82.18 104.795C78.4 103.355 74.17 102.635 69.49 102.635C65.26 102.635 61.39 103.4 57.88 104.93C54.37 106.37 51.31 108.485 48.7 111.275C46.18 114.065 44.2 117.395 42.76 121.265C41.32 125.135 40.6 129.5 40.6 134.36C40.6 139.22 41.185 143.585 42.355 147.455C43.525 151.325 45.325 154.655 47.755 157.445C50.185 160.235 53.245 162.395 56.935 163.925C60.625 165.365 64.99 166.085 70.03 166.085ZM63.28 75.905C69.58 73.565 76.6 72.395 84.34 72.395C91.45 72.395 98.47 73.565 105.4 75.905C112.33 78.245 118.54 81.845 124.03 86.705C129.52 91.565 133.93 97.73 137.26 105.2C140.68 112.58 142.39 121.31 142.39 131.39C142.39 140.57 140.68 149.3 137.26 157.58C133.84 165.77 128.98 172.97 122.68 179.18C116.47 185.3 108.955 190.16 100.135 193.76C91.315 197.36 81.55 199.16 70.84 199.16C59.86 199.16 50.005 197.45 41.275 194.03C32.545 190.52 25.12 185.66 19 179.45C12.97 173.24 8.335 165.815 5.095 157.175C1.945 148.535 0.37 139.04 0.37 128.69C0.37 109.34 7.84 89.675 22.78 69.695L67.06 9.88999C69.13 7.27999 72.1 5.02999 75.97 3.13999C79.93 1.24999 84.43 0.304998 89.47 0.304998H126.73L68.41 69.965L63.28 75.905Z" fill="#05F1D7"/>
</svg>
